<svg version="1.0" xmlns="http://www.w3.org/2000/svg"
 width="94.000000pt" height="65.000000pt" viewBox="0 0 94.000000 65.000000"
 preserveAspectRatio="xMidYMid meet">
    <g transform="translate(0.000000,65.000000) scale(0.100000,-0.100000)"
    fill="#000000" stroke="none">
        <path d="M402 633 c-14 -13 -341 -524 -396 -620 -5 -10 8 -13 56 -13 l63 0 58
        95 59 95 126 0 127 0 28 45 c15 25 27 48 27 50 0 3 -54 5 -120 5 -66 0 -120 2
        -120 5 0 14 132 205 139 201 4 -3 77 -116 162 -250 l154 -246 63 0 c48 0 61 3
        56 13 -66 110 -390 615 -402 625 -22 17 -56 15 -80 -5z"/>
    </g>
</svg>
