<svg width="269" height="207" viewBox="0 0 269 207" fill="none" xmlns="http://www.w3.org/2000/svg">
<g class="currentLayer" style=""><title>Layer 1</title>
<path d="M227.80799896669387,193.3285020198822 C241.02999896669388,188.5895020198822 251.31599896669388,172.52350201988222 253.7959989666939,152.3125020198822 V146.4735020198822 H186.01199896669388 V193.3285020198822 H227.80799896669387 zM253.7989989666939,60.551402019882204 V55.266902019882195 C251.19999896669387,34.183502019882205 240.14699896669387,17.575732019882203 226.05099896669387,13.669502019882202 H186.0159989666939 V60.551402019882204 H253.7989989666939 zM15.197899446693878,146.4745020198822 V152.2635020198822 C17.65248896669388,172.4875020198822 27.94029896669388,188.5905020198822 41.197198966693875,193.3305020198822 H82.77759896669387 V146.4745020198822 H15.197899446693878 zM42.93419896669388,13.675569169882206 C28.862898966693876,17.581802019882204 17.77320896669388,34.2028020198822 15.197899446693878,55.31140201988221 V60.557402019882204 H82.77859896669389 V13.675569169882206 H42.93419896669388 zM253.80399896669388,80.0724020198822 H186.0199989666939 V126.9535020198822 H253.80399896669388 V80.0724020198822 zM101.24159896669387,193.3255020198822 H167.55299896669388 V146.4695020198822 H101.24259896669388 L101.24159896669387,193.3255020198822 zM167.55399896669388,13.674557979882202 H101.24259896669388 V60.5554020198822 H167.55299896669388 L167.55399896669388,13.674557979882202 zM15.195998966693878,126.9535020198822 H82.77569896669388 V80.0724020198822 H15.195998966693878 V126.9535020198822 z" fill="#EE2E24" id="svg_1" class=""/>
</g>
</svg>
