<svg version="1.0" xmlns="http://www.w3.org/2000/svg"
 width="282.000000pt" height="213.000000pt" viewBox="0 0 282.000000 213.000000"
 preserveAspectRatio="xMidYMid meet">

<g transform="translate(0.000000,213.000000) scale(0.100000,-0.100000)"
fill="#0073bd" stroke="none">
<path d="M1096 1996 c-42 -74 -76 -136 -76 -139 0 -3 -67 -121 -148 -264 -81
-142 -151 -266 -154 -275 -4 -9 -70 -127 -147 -262 -78 -135 -141 -248 -141
-251 0 -3 -67 -123 -149 -268 -239 -423 -281 -499 -281 -513 0 -12 60 -14 348
-14 l348 0 70 122 c38 67 71 126 73 132 2 6 53 97 113 203 l109 192 462 3 462
3 68 34 c44 22 84 52 111 83 35 40 326 534 326 553 0 3 64 117 142 253 142
247 142 247 146 319 5 90 -20 150 -81 194 l-40 29 -742 0 -743 0 -76 -134z
m790 -378 c26 -26 20 -57 -33 -148 -27 -47 -64 -114 -82 -150 -73 -143 -86
-150 -281 -150 l-142 0 38 68 c21 37 44 81 52 97 15 30 52 96 132 233 l42 74
129 -4 c103 -2 132 -6 145 -20z"/>
</g>
</svg>
