<svg xmlns="http://www.w3.org/2000/svg" width="346" height="338" viewBox="0 0 346 338" fill="none" style="">
<rect id="backgroundrect" width="100%" height="100%" x="0" y="0" fill="none" stroke="none" class="" style=""/>
<defs>
<linearGradient id="paint0_linear" x1="0" y1="0.5000024437904358" x2="1" y2="0.5000024437904358">
<stop stop-color="#39393C"/>
<stop offset="0.97" stop-color="#8A8A8D"/>
<stop offset="1" stop-color="#8A8A8D"/>
</linearGradient>
<linearGradient id="paint1_linear" x1="0" y1="0.49954932928085327" x2="1" y2="0.49954932928085327">
<stop stop-color="#A8CEDB"/>
<stop offset="0.27" stop-color="#87C1EA"/>
<stop offset="0.6" stop-color="#4A71A0"/>
<stop offset="0.97" stop-color="#3C5E8F"/>
<stop offset="1" stop-color="#3C5E8F"/>
</linearGradient>
<linearGradient id="paint2_linear" x1="0" y1="0.4999995827674866" x2="0.999992311000824" y2="0.4999995827674866">
<stop stop-color="#3C5E8F"/>
<stop offset="0.34" stop-color="#4A71A0"/>
<stop offset="0.8" stop-color="#87C1EA"/>
<stop offset="1" stop-color="#A8CEDB"/>
</linearGradient>
</defs>
<g class="currentLayer" style=""><title>Layer 1</title><path d="M165.36774540519716,19.23360498190689 C156.24574540519714,19.23360498190689 154.20274540519713,23.88719698190689 153.93074540519714,31.177796981906894 C153.93074540519714,31.64319698190689 154.06674540519714,32.418796981906894 153.79474540519715,38.46839698190689 C149.02874540519713,125.6456969819069 117.30514540519714,192.03669698190689 59.847745405197145,244.1566969819069 C85.71714540519714,232.0576969819069 112.53964540519715,224.4566969819069 139.49874540519716,220.8886969819069 C176.39674540519715,165.3556969819069 194.64074540519715,109.97849698190689 196.00274540519715,35.36599698190689 C196.00274540519715,34.12509698190689 196.00274540519715,19.23360498190689 196.00274540519715,19.23360498190689 H165.36774540519716 z" fill="url(#paint0_linear)" id="svg_1" class=""/><path d="M34.377745405197146,269.0196969819069 C33.660445405197144,269.5646969819069 22.184059405197143,276.9196969819069 22.184059405197143,276.9196969819069 L37.48594540519714,307.1556969819069 C42.02874540519714,316.1446969819069 46.57144540519714,315.8716969819069 52.30974540519715,312.60369698190686 C52.78784540519715,312.3306969819069 53.26604540519715,311.7856969819069 57.80884540519715,309.0616969819069 C126.66774540519714,270.1096969819069 192.89574540519715,268.2026969819069 261.2767454051972,298.7106969819069 C239.04074540519716,279.3706969819069 219.91374540519715,256.76269698190686 203.89474540519714,231.9746969819069 C190.26574540519715,229.7946969819069 177.11574540519715,228.9776969819069 164.20474540519714,228.9776969819069 C119.73374540519714,228.9776969819069 79.08804540519714,240.96369698190688 34.377745405197146,269.0196969819069 z" fill="url(#paint1_linear)" id="svg_2" class=""/><path d="M179.88174540519714,162.99969698190688 C203.58774540519715,227.2646969819069 236.71774540519715,272.8186969819069 292.69674540519713,311.5396969819069 C293.55374540519716,312.19069698190685 304.97774540519714,319.6746969819069 304.97774540519714,319.6746969819069 L320.25774540519717,289.41369698190687 C324.97074540519714,280.3026969819069 322.25674540519714,276.0726969819069 316.9737454051971,272.1676969819069 C316.54474540519715,271.8426969819069 315.83074540519715,271.6796969819069 311.4037454051971,268.2636969819069 C247.57074540519713,219.9426969819069 212.86974540519714,155.5166969819069 202.01674540519716,72.7048969819069 C198.30374540519713,104.43029698190689 190.73474540519715,134.6916969819069 179.88174540519714,162.99969698190688 z" fill="url(#paint2_linear)" id="svg_3" class=""/></g>

</svg>