<?xml version="1.0" standalone="no"?>
<!DOCTYPE svg PUBLIC "-//W3C//DTD SVG 20010904//EN"
 "http://www.w3.org/TR/2001/REC-SVG-20010904/DTD/svg10.dtd">
<svg version="1.0" xmlns="http://www.w3.org/2000/svg"
 width="100.000000pt" height="88.000000pt" viewBox="0 0 100.000000 88.000000"
 preserveAspectRatio="xMidYMid meet">

<g transform="translate(0.000000,88.000000) scale(0.100000,-0.100000)" fill="#f69221" stroke="none">
<path d="M297 775 c-54 -58 -96 -105 -93 -105 4 0 52 23 108 51 l101 51 71
-32 c39 -18 78 -35 86 -38 8 -3 -23 35 -69 86 -46 51 -89 92 -95 92 -6 0 -55
-47 -109 -105z"/>
<path d="M672 730 l97 -50 -25 -61 c-14 -34 -24 -63 -22 -64 8 -8 163 118 163
132 0 15 -102 47 -280 86 -16 4 14 -16 67 -43z"/>
<path d="M186 616 c-121 -23 -172 -37 -180 -49 -6 -9 -8 -18 -6 -20 11 -9 316
-234 328 -241 7 -4 -25 52 -72 126 -72 113 -82 134 -68 140 9 4 60 23 112 42
117 43 101 43 -114 2z"/>
<path d="M875 469 l5 -107 -93 30 c-150 49 -153 50 -137 34 36 -33 314 -226
326 -226 7 0 15 4 18 9 4 5 -23 89 -59 188 l-66 178 6 -106z"/>
<path d="M426 460 c-5 -19 -28 -123 -52 -230 -61 -274 -74 -268 218 -103 125
70 226 129 224 130 -1 1 -78 -15 -171 -37 -93 -22 -170 -38 -172 -36 -2 2 -10
66 -19 142 -18 175 -19 176 -28 134z"/>
</g>
</svg>
